<svg fill="none" height="25" viewBox="0 0 32 25" width="32" xmlns="http://www.w3.org/2000/svg"><path d="m7.22567 24.7021v-12.3604l-3.80959-3.50703-3.41608-1.94612v15.63235c0 1.2069.971852 2.1812 2.1677 2.1812z" fill="#4285f4"/><path d="m24.5673 24.7021h5.0579c1.1995 0 2.1677-.9779 2.1677-2.1812v-15.63235l-3.8692 2.2292-3.3564 3.22395z" fill="#34a853"/><path d="m7.22566 12.3417-.51838-4.82965.51838-4.62246 8.67084 6.54376 8.6708-6.54376.5798 4.37286-.5798 5.07925-8.6708 6.5438z" fill="#ea4335"/><path d="m24.5673 2.88959v9.45211l7.2256-5.45314v-2.90834c0-2.69749-3.06-4.235272-5.2025-2.61751z" fill="#fbbc04"/><path d="m0 6.88856 3.32321 2.50799 3.90246 2.94515v-9.45211l-2.02319-1.52688c-2.14602-1.617762-5.20248-.07998-5.20248 2.61751z" fill="#c5221f"/></svg>