<svg fill="none" height="25" viewBox="0 0 25 25" width="25" xmlns="http://www.w3.org/2000/svg"><path d="m12.6207.702148c-6.79431 0-12.303805 5.508472-12.303805 12.303852 0 5.4361 3.525415 10.0481 8.414095 11.675.6149.1139.84065-.2669.84065-.5919 0-.2934-.01141-1.2626-.0167-2.2907-3.42293.7443-4.14521-1.4517-4.14521-1.4517-.55969-1.4221-1.36612-1.8003-1.36612-1.8003-1.11632-.7636.08415-.7479.08415-.7479 1.23551.0868 1.88607 1.2679 1.88607 1.2679 1.09738 1.881 2.87832 1.3372 3.58043 1.0228.11043-.7952.42934-1.338.78114-1.6453-2.73282-.3111-5.60564-1.3661-5.60564-6.0806 0-1.3433.48064-2.44083 1.26771-3.30248-.12775-.30989-.54889-1.5613.11919-3.25606 0 0 1.03319-.33068 3.38442 1.26119.98142-.27262 2.03402-.40933 3.07962-.41401 1.0456.00468 2.099.14139 3.0823.41401 2.3483-1.59187 3.3801-1.26119 3.3801-1.26119.6697 1.69476.2484 2.94617.1206 3.25606.7889.86165 1.2663 1.95918 1.2663 3.30248 0 4.7257-2.8783 5.7663-5.6181 6.0709.4413.3818.8346 1.1305.8346 2.2784 0 1.6463-.0143 2.9713-.0143 3.3765 0 .3274.2215.7111.8451.5903 4.8861-1.6288 8.407-6.2391 8.407-11.6734 0-6.79538-5.5087-12.303852-12.3036-12.303852zm-7.69563 17.527052c-.0271.0611-.12327.0794-.21088.0375-.08924-.0402-.13936-.1235-.11043-.1848.02649-.063.12286-.0805.2119-.0383.08944.0401.14038.1243.10941.1856zm.60521.54c-.05868.0544-.17339.0291-.25122-.0568-.08048-.0858-.09555-.2005-.03606-.2557.06051-.0544.17176-.029.25244.0568.08048.0868.09617.2007.03484.2557zm.4152.6909c-.07539.0524-.19865.0033-.27485-.1061-.07539-.1094-.07539-.2406.00162-.2932.07641-.0526.19784-.0053.27506.1033.07518.1112.07518.2425-.00183.296zm.70219.8002c-.06744.0744-.21109.0544-.31622-.047-.10758-.0992-.13753-.24-.06988-.3144.06825-.0746.21271-.0536.31866.0471.10676.099.13936.2408.06744.3143zm.9075.2702c-.02974.0964-.16809.1402-.30745.0992-.13916-.0422-.23023-.155-.20211-.2524.02893-.097.16788-.1427.30826-.0988.13896.0419.23024.154.2013.252zm1.03279.1146c.00346.1014-.11471.1856-.261.1874-.1471.0033-.26609-.0788-.26772-.1787 0-.1025.11552-.1858.26263-.1882.14629-.0029.26609.0786.26609.1795zm1.01459-.0389c.01753.099-.08414.2007-.22941.2278-.14283.026-.27506-.0351-.29319-.1333-.01773-.1014.08577-.2031.22839-.2294.14548-.0253.27567.0342.29421.1349z" fill="#161614"/></svg>