<svg fill="none" height="27" viewBox="0 0 26 27" width="26" xmlns="http://www.w3.org/2000/svg"><g clip-rule="evenodd" fill-rule="evenodd"><path d="m25.7894 13.9919c0-.9041-.0811-1.7734-.2318-2.6079h-12.0082v4.9319h6.8618c-.2955 1.5938-1.1938 2.9441-2.5442 3.8482v3.1991h4.1206c2.4109-2.2197 3.8018-5.4883 3.8018-9.3713z" fill="#4285f4"/><path d="m13.5494 26.4521c3.4425 0 6.3286-1.1417 8.4382-3.0889l-4.1206-3.1991c-1.1417.765-2.6021 1.217-4.3176 1.217-3.3208 0-6.13158-2.2428-7.13419-5.2565h-4.25966v3.3034c2.09795 4.167 6.40977 7.0241 11.39385 7.0241z" fill="#34a853"/><path d="m6.4152 16.1247c-.255-.765-.39988-1.5822-.39988-2.4225 0-.8404.14488-1.6575.39988-2.4225v-3.30344h-4.25966c-.86352 1.72125-1.356132 3.66854-1.356132 5.72594s.492612 4.0046 1.356132 5.7259z" fill="#fbbc05"/><path d="m13.5494 6.02317c1.8719 0 3.5526.6433 4.874 1.90671l3.6569-3.65694c-2.208-2.05738-5.0942-3.320792-8.5309-3.320792-4.98408 0-9.2959 2.857162-11.39385 7.024092l4.25966 3.30336c1.00261-3.01359 3.81339-5.25643 7.13419-5.25643z" fill="#ea4335"/></g></svg>