<svg fill="none" height="25" viewBox="0 0 24 25" width="24" xmlns="http://www.w3.org/2000/svg"><path d="m22.4955 24.7021c-12.7965.018-22.5089859-9.81-22.49548594-22.49545 0-.8295.67199994-1.504502 1.49999594-1.504502h3.96c.7425 0 1.374.546002 1.4835 1.281002.26115 1.76258.77388 3.47856 1.5225 5.09549l.1545.333c.10378.22409.1261.47737.06312.71615s-.20732.4481-.40812.59185c-1.227.876-1.695 2.63846-.7395 4.01246 1.20297 1.73 2.70439 3.232 4.43399 4.4355 1.3755.954 3.138.486 4.0125-.7395.1436-.2014.3531-.3463.5922-.4095.2392-.0633.4929-.041.7173.063l.3315.153c1.617.75 3.333 1.263 5.0955 1.524.735.1095 1.281.741 1.281 1.485v3.9585c0 .1971-.0389.3923-.1143.5744-.0755.1821-.1861.3475-.3256.4868-.1394.1393-.305.2498-.4871.3251-.1822.0753-.3774.1139-.5745.1137z" fill="#00b712"/></svg>