<svg fill="none" height="25" viewBox="0 0 31 25" width="31" xmlns="http://www.w3.org/2000/svg"><path d="m30.3169 3.54322c-1.0866.48189-2.2543.80757-3.4799.95405 1.251-.74989 2.2116-1.93726 2.664-3.35202-1.1706.69426-2.4673 1.1985-3.8474 1.47028-1.1053-1.17754-2.6799-1.913382-4.4225-1.913382-3.3462 0-6.059 2.712742-6.059 6.058712 0 .47486.0537.9373.1569 1.38073-5.0355-.25266-9.49992-2.66478-12.48822-6.33038-.52153.89485-.82032 1.93563-.82032 3.04599 0 2.10199 1.06974 3.9565 2.69546 5.04298-.99326-.03143-1.92743-.30397-2.74439-.75777-.00043.02528-.00043.05066-.00043.07615 0 2.93564 2.08848 5.38444 4.86021 5.94094-.50846.1385-1.04371.2125-1.59634.2125-.39039 0-.76998-.0379-1.13985-.1087.77095 2.4072 3.00851 4.1589 5.65979 4.2078-2.07358 1.625-4.68608 2.5936-7.52467 2.5936-.48901 0-.97133-.0286-1.445328-.0846 2.681308 1.7191 5.866108 2.722 9.287688 2.722 11.1444 0 17.2385-9.2322 17.2385-17.23867 0-.26271-.0058-.52401-.0175-.7838 1.1837-.85424 2.211-1.92138 3.0233-3.13641z" fill="#55acee"/></svg>